# xmcd
#
# Track frame offsets:
#	150
#	18931
#	38234
#	57755
#	74778
#	93294
#	107007
#	124648
#	142238
#	158224
#	176873
#	194494
#	210769
# Disc length: 3010 seconds
# Revision: 1
# Processed by: cddbd v1.5.2PL0 Copyright (c) Steve Scherf et al.
#
# Submitted via: libkcddb 0.31
#
DISCID=b90bc00d
DTITLE=Boi Pirilampo - Arte Popular do Maranhão 2008
DYEAR=2008
DGENRE=Sertanejo
TTITLE0=Vovô - Chamado
TTITLE1=Godinho - Reclame
TTITLE2=Vovô - Bom Menino
TTITLE3=Batista Torres - Queixume
TTITLE4=Godinho - Águas de Maio
TTITLE5=Vovô - Oferenda
TTITLE6=Godinho - Filho da Luz
TTITLE7=Batista Torres - Pedaço de Paixão
TTITLE8=Vovô - Estrela da Madrugada
TTITLE9=Godinho - Novilho Verdadeiro
TTITLE10=Vovô - Saudade
TTITLE11=Godinho - O Amor e o Destino
TTITLE12=Godinho - Gotas de Saudade
EXTD=
EXTT0=RD e Vovô
EXTT1=RD e Godinho
EXTT2=RD e Vovô
EXTT3=RD e Rodrigo de Sousa
EXTT4=RD e Godinho
EXTT5=RD e Vovô
EXTT6=RD e Godinho
EXTT7=RD e Godinho
EXTT8=Vovô e Sousa
EXTT9=RD e Godinho
EXTT10=RD e Vovô
EXTT11=RD e Godinho
EXTT12=RD e Godinho
PLAYORDER=
